# xmcd
#
# Track frame offsets: 
#        150
#        12657
#        30347
#        44317
#        56285
#        69485
#        84279
#        101987
#        113314
#        132561
#        149582
#        161100
#
# Disc length: 2249 seconds
#
# Revision: 1
# Processed by: cddbd v1.5.2PL0 Copyright (c) Steve Scherf et al.
# Submitted via: ExactAudioCopy v0.95a5
#
DISCID=9f08c70c
DTITLE=Billy Bob Thornton and The Boxmasters - Modbilly: Disk Two: The
DTITLE=irs
DYEAR=2009
DGENRE=Country
TTITLE0=Dime At A Time
TTITLE1=Merrimack County
TTITLE2=As Tears Go By
TTITLE3=Joanne
TTITLE4=Half A Mind
TTITLE5=Elenore
TTITLE6=Lord Knows I'm Drinkin'
TTITLE7=Big Ole Brew
TTITLE8=Gentle On My Mind
TTITLE9=Errol Flynn
TTITLE10=Santa Rosa
TTITLE11=Boxmasters Theme
EXTD=
EXTT0=
EXTT1=
EXTT2=
EXTT3=
EXTT4=
EXTT5=
EXTT6=
EXTT7=
EXTT8=
EXTT9=
EXTT10=
EXTT11=
PLAYORDER=
